<svg width="14" height="10" viewBox="0 0 14 10" fill="none" xmlns="http://www.w3.org/2000/svg">
<path d="M3.53711 5.83245L5.91211 8.20745C6.07878 8.37411 6.15864 8.56856 6.15169 8.79078C6.14475 9.013 6.06489 9.20745 5.91211 9.37411C5.74544 9.54078 5.54753 9.62759 5.31836 9.63453C5.08919 9.64148 4.89128 9.56161 4.72461 9.39495L0.912109 5.58245C0.745443 5.41578 0.662109 5.22134 0.662109 4.99911C0.662109 4.77689 0.745443 4.58245 0.912109 4.41578L4.72461 0.603281C4.89128 0.436615 5.08919 0.356753 5.31836 0.363698C5.54753 0.370642 5.74544 0.457448 5.91211 0.624115C6.06489 0.790781 6.14475 0.985226 6.15169 1.20745C6.15864 1.42967 6.07878 1.62411 5.91211 1.79078L3.53711 4.16578H12.8288C13.0649 4.16578 13.2628 4.24564 13.4225 4.40536C13.5822 4.56509 13.6621 4.763 13.6621 4.99911C13.6621 5.23523 13.5822 5.43314 13.4225 5.59286C13.2628 5.75259 13.0649 5.83245 12.8288 5.83245H3.53711Z" fill="#404040"/>
</svg>
