<svg width="14" height="14" viewBox="0 0 14 14" fill="none" xmlns="http://www.w3.org/2000/svg">
<path d="M10.4788 7.83245H1.16634C0.93023 7.83245 0.732313 7.75259 0.572591 7.59286C0.412869 7.43314 0.333008 7.23523 0.333008 6.99911C0.333008 6.763 0.412869 6.56509 0.572591 6.40536C0.732313 6.24564 0.93023 6.16578 1.16634 6.16578H10.4788L6.39551 2.08245C6.22884 1.91578 6.14898 1.72134 6.15592 1.49911C6.16287 1.27689 6.24967 1.08245 6.41634 0.915781C6.58301 0.763003 6.77745 0.683142 6.99967 0.676198C7.2219 0.669253 7.41634 0.749115 7.58301 0.915781L13.083 6.41578C13.1663 6.49911 13.2254 6.58939 13.2601 6.68661C13.2948 6.78384 13.3122 6.888 13.3122 6.99911C13.3122 7.11023 13.2948 7.21439 13.2601 7.31161C13.2254 7.40884 13.1663 7.49911 13.083 7.58245L7.58301 13.0824C7.43023 13.2352 7.23926 13.3116 7.01009 13.3116C6.78092 13.3116 6.58301 13.2352 6.41634 13.0824C6.24967 12.9158 6.16634 12.7179 6.16634 12.4887C6.16634 12.2595 6.24967 12.0616 6.41634 11.8949L10.4788 7.83245Z" fill="#999999"/>
</svg>
