<svg width="24" height="25" viewBox="0 0 24 25" fill="none" xmlns="http://www.w3.org/2000/svg">
<g clip-path="url(#clip0_815_6957)">
<path d="M24 12.0938C24 5.46639 18.6274 0.09375 12 0.09375C5.37264 0.09375 0 5.46639 0 12.0938C0 17.7213 3.87456 22.4435 9.10128 23.7405V15.761H6.62688V12.0938H9.10128V10.5136C9.10128 6.42927 10.9498 4.53615 14.9597 4.53615C15.72 4.53615 17.0318 4.68543 17.5685 4.83423V8.15823C17.2853 8.12847 16.7933 8.11359 16.1822 8.11359C14.2147 8.11359 13.4544 8.85903 13.4544 10.7968V12.0938H17.3741L16.7006 15.761H13.4544V24.0059C19.3963 23.2883 24.0005 18.2291 24.0005 12.0938H24Z" fill="#0866FF"/>
<path d="M16.7007 15.7609L17.3742 12.0937H13.4545V10.7968C13.4545 8.85901 14.2148 8.11357 16.1823 8.11357C16.7934 8.11357 17.2854 8.12845 17.5686 8.15821V4.83421C17.0319 4.68493 15.7201 4.53613 14.9598 4.53613C10.9498 4.53613 9.10135 6.42925 9.10135 10.5136V12.0937H6.62695V15.7609H9.10135V23.7405C10.0297 23.9709 11.0007 24.0937 12.0001 24.0937C12.4921 24.0937 12.9774 24.0635 13.454 24.0059V15.7609H16.7002H16.7007Z" fill="white"/>
</g>
<defs>
<clipPath id="clip0_815_6957">
<rect width="24" height="24" fill="white" transform="translate(0 0.09375)"/>
</clipPath>
</defs>
</svg>
