<svg width="24" height="25" viewBox="0 0 24 25" fill="none" xmlns="http://www.w3.org/2000/svg">
<g clip-path="url(#clip0_815_6959)">
<path d="M18.375 0.09375H5.625C2.5184 0.09375 0 2.61215 0 5.71875V18.4688C0 21.5754 2.5184 24.0938 5.625 24.0938H18.375C21.4816 24.0938 24 21.5754 24 18.4688V5.71875C24 2.61215 21.4816 0.09375 18.375 0.09375Z" fill="url(#paint0_radial_815_6959)"/>
<path d="M18.375 0.09375H5.625C2.5184 0.09375 0 2.61215 0 5.71875V18.4688C0 21.5754 2.5184 24.0938 5.625 24.0938H18.375C21.4816 24.0938 24 21.5754 24 18.4688V5.71875C24 2.61215 21.4816 0.09375 18.375 0.09375Z" fill="url(#paint1_radial_815_6959)"/>
<path d="M12.0008 2.71875C9.45478 2.71875 9.13519 2.72991 8.13525 2.77538C7.13719 2.82113 6.45591 2.97909 5.85984 3.21094C5.24316 3.45037 4.72013 3.77072 4.19906 4.29197C3.67753 4.81312 3.35719 5.33616 3.117 5.95256C2.8845 6.54881 2.72634 7.23037 2.68144 8.22797C2.63672 9.228 2.625 9.54769 2.625 12.0938C2.625 14.64 2.63625 14.9586 2.68163 15.9585C2.72756 16.9566 2.88553 17.6378 3.11719 18.2339C3.35681 18.8506 3.67716 19.3736 4.19841 19.8947C4.71938 20.4162 5.24241 20.7373 5.85862 20.9767C6.45516 21.2086 7.13653 21.3666 8.13441 21.4123C9.13444 21.4578 9.45375 21.4689 11.9997 21.4689C14.5461 21.4689 14.8646 21.4578 15.8646 21.4123C16.8626 21.3666 17.5447 21.2086 18.1412 20.9767C18.7576 20.7373 19.2799 20.4162 19.8007 19.8947C20.3223 19.3736 20.6425 18.8506 20.8828 18.2342C21.1133 17.6378 21.2715 16.9564 21.3184 15.9587C21.3633 14.9587 21.375 14.64 21.375 12.0938C21.375 9.54769 21.3633 9.22819 21.3184 8.22816C21.2715 7.23009 21.1133 6.54891 20.8828 5.95284C20.6425 5.33616 20.3223 4.81312 19.8007 4.29197C19.2793 3.77053 18.7578 3.45019 18.1406 3.21103C17.543 2.97909 16.8613 2.82103 15.8632 2.77538C14.8632 2.72991 14.5448 2.71875 11.9979 2.71875H12.0008ZM11.1598 4.40822C11.4095 4.40784 11.688 4.40822 12.0008 4.40822C14.5041 4.40822 14.8007 4.41722 15.7892 4.46213C16.7032 4.50394 17.1994 4.65666 17.5298 4.785C17.9674 4.95487 18.2793 5.15803 18.6072 5.48625C18.9353 5.81437 19.1384 6.12684 19.3088 6.56437C19.4371 6.89437 19.59 7.3905 19.6316 8.30456C19.6765 9.29288 19.6863 9.58969 19.6863 12.0917C19.6863 14.5937 19.6765 14.8906 19.6316 15.8788C19.5898 16.7929 19.4371 17.289 19.3088 17.6191C19.1389 18.0566 18.9353 18.3682 18.6072 18.6961C18.2791 19.0242 17.9676 19.2273 17.5298 19.3973C17.1997 19.5262 16.7032 19.6785 15.7892 19.7203C14.8009 19.7652 14.5041 19.775 12.0008 19.775C9.49753 19.775 9.20081 19.7652 8.21259 19.7203C7.29853 19.6781 6.80241 19.5254 6.47166 19.3971C6.03422 19.2271 5.72166 19.024 5.39353 18.6959C5.06541 18.3678 4.86234 18.0561 4.692 17.6183C4.56366 17.2882 4.41075 16.7921 4.36913 15.8781C4.32422 14.8897 4.31522 14.5929 4.31522 12.0893C4.31522 9.58584 4.32422 9.29053 4.36913 8.30222C4.41094 7.38816 4.56366 6.89203 4.692 6.56156C4.86197 6.12403 5.06541 5.81156 5.39363 5.48344C5.72175 5.15531 6.03422 4.95216 6.47175 4.78191C6.80222 4.653 7.29853 4.50066 8.21259 4.45866C9.07744 4.41956 9.41259 4.40784 11.1598 4.40587V4.40822ZM17.0052 5.96484C16.3841 5.96484 15.8802 6.46828 15.8802 7.08947C15.8802 7.71056 16.3841 8.21447 17.0052 8.21447C17.6263 8.21447 18.1302 7.71056 18.1302 7.08947C18.1302 6.46838 17.6263 5.96447 17.0052 5.96447V5.96484ZM12.0008 7.27931C9.34209 7.27931 7.18641 9.435 7.18641 12.0938C7.18641 14.7527 9.34209 16.9073 12.0008 16.9073C14.6597 16.9073 16.8146 14.7527 16.8146 12.0938C16.8146 9.43509 14.6595 7.27931 12.0007 7.27931H12.0008ZM12.0008 8.96878C13.7267 8.96878 15.1259 10.3678 15.1259 12.0938C15.1259 13.8197 13.7267 15.2189 12.0008 15.2189C10.2749 15.2189 8.87588 13.8197 8.87588 12.0938C8.87588 10.3678 10.2749 8.96878 12.0008 8.96878Z" fill="white"/>
</g>
<defs>
<radialGradient id="paint0_radial_815_6959" cx="0" cy="0" r="1" gradientUnits="userSpaceOnUse" gradientTransform="translate(6.375 25.9422) rotate(-90) scale(23.7858 22.1227)">
<stop stop-color="#FFDD55"/>
<stop offset="0.1" stop-color="#FFDD55"/>
<stop offset="0.5" stop-color="#FF543E"/>
<stop offset="1" stop-color="#C837AB"/>
</radialGradient>
<radialGradient id="paint1_radial_815_6959" cx="0" cy="0" r="1" gradientUnits="userSpaceOnUse" gradientTransform="translate(-4.02009 1.82259) rotate(78.681) scale(10.6324 43.827)">
<stop stop-color="#3771C8"/>
<stop offset="0.128" stop-color="#3771C8"/>
<stop offset="1" stop-color="#6600FF" stop-opacity="0"/>
</radialGradient>
<clipPath id="clip0_815_6959">
<rect width="24" height="24" fill="white" transform="translate(0 0.09375)"/>
</clipPath>
</defs>
</svg>
