<svg width="56" height="56" viewBox="0 0 56 56" fill="none" xmlns="http://www.w3.org/2000/svg">
<circle cx="28" cy="28" r="27.5" fill="#FAFAFA" stroke="#E5E5E5"/>
<mask id="mask0_1071_11833" style="mask-type:alpha" maskUnits="userSpaceOnUse" x="12" y="12" width="32" height="32">
<rect x="12" y="12" width="32" height="32" fill="#D9D9D9"/>
</mask>
<g mask="url(#mask0_1071_11833)">
<path d="M26.401 27.9997L31.601 33.1997C31.8455 33.4442 31.9677 33.7553 31.9677 34.1331C31.9677 34.5109 31.8455 34.822 31.601 35.0664C31.3566 35.3109 31.0455 35.4331 30.6677 35.4331C30.2899 35.4331 29.9788 35.3109 29.7344 35.0664L23.601 28.9331C23.4677 28.7997 23.3733 28.6553 23.3177 28.4997C23.2622 28.3442 23.2344 28.1775 23.2344 27.9997C23.2344 27.822 23.2622 27.6553 23.3177 27.4997C23.3733 27.3442 23.4677 27.1997 23.601 27.0664L29.7344 20.9331C29.9788 20.6886 30.2899 20.5664 30.6677 20.5664C31.0455 20.5664 31.3566 20.6886 31.601 20.9331C31.8455 21.1775 31.9677 21.4886 31.9677 21.8664C31.9677 22.2442 31.8455 22.5553 31.601 22.7997L26.401 27.9997Z" fill="#404040"/>
</g>
</svg>
