<svg width="24" height="25" viewBox="0 0 24 25" fill="none" xmlns="http://www.w3.org/2000/svg">
<g clip-path="url(#clip0_1062_2844)">
<path d="M22.2283 0.09375H1.77167C1.30179 0.09375 0.851161 0.280407 0.518909 0.612659C0.186657 0.944911 0 1.39554 0 1.86542V22.3221C0 22.792 0.186657 23.2426 0.518909 23.5748C0.851161 23.9071 1.30179 24.0938 1.77167 24.0938H22.2283C22.6982 24.0938 23.1488 23.9071 23.4811 23.5748C23.8133 23.2426 24 22.792 24 22.3221V1.86542C24 1.39554 23.8133 0.944911 23.4811 0.612659C23.1488 0.280407 22.6982 0.09375 22.2283 0.09375ZM7.15333 20.5387H3.545V9.07708H7.15333V20.5387ZM5.34667 7.48875C4.93736 7.48645 4.53792 7.36295 4.19873 7.13384C3.85955 6.90473 3.59584 6.58028 3.44088 6.20144C3.28591 5.8226 3.24665 5.40634 3.32803 5.0052C3.40941 4.60407 3.6078 4.23603 3.89816 3.94753C4.18851 3.65904 4.55782 3.46302 4.95947 3.38421C5.36112 3.3054 5.77711 3.34734 6.15495 3.50474C6.53279 3.66213 6.85554 3.92792 7.08247 4.26856C7.30939 4.60921 7.43032 5.00944 7.43 5.41875C7.43386 5.69278 7.38251 5.96479 7.27901 6.21855C7.17551 6.47232 7.02198 6.70265 6.82757 6.89582C6.63316 7.08898 6.40185 7.24103 6.14742 7.3429C5.893 7.44477 5.62067 7.49437 5.34667 7.48875ZM20.4533 20.5487H16.8467V14.2871C16.8467 12.4404 16.0617 11.8704 15.0483 11.8704C13.9783 11.8704 12.9283 12.6771 12.9283 14.3338V20.5487H9.32V9.08542H12.79V10.6738H12.8367C13.185 9.96875 14.405 8.76375 16.2667 8.76375C18.28 8.76375 20.455 9.95875 20.455 13.4588L20.4533 20.5487Z" fill="#0A66C2"/>
</g>
<defs>
<clipPath id="clip0_1062_2844">
<rect width="24" height="24" fill="white" transform="translate(0 0.09375)"/>
</clipPath>
</defs>
</svg>
