<svg width="56" height="56" viewBox="0 0 56 56" fill="none" xmlns="http://www.w3.org/2000/svg">
<circle cx="28" cy="28" r="27.5" fill="#FAFAFA" stroke="#E5E5E5"/>
<mask id="mask0_1071_11823" style="mask-type:alpha" maskUnits="userSpaceOnUse" x="12" y="12" width="32" height="32">
<rect x="12" y="12" width="32" height="32" fill="#D9D9D9"/>
</mask>
<g mask="url(#mask0_1071_11823)">
<path d="M28.801 27.9997L23.601 22.7997C23.3566 22.5553 23.2344 22.2442 23.2344 21.8664C23.2344 21.4886 23.3566 21.1775 23.601 20.9331C23.8455 20.6886 24.1566 20.5664 24.5344 20.5664C24.9122 20.5664 25.2233 20.6886 25.4677 20.9331L31.601 27.0664C31.7344 27.1997 31.8288 27.3442 31.8844 27.4997C31.9399 27.6553 31.9677 27.822 31.9677 27.9997C31.9677 28.1775 31.9399 28.3442 31.8844 28.4997C31.8288 28.6553 31.7344 28.7997 31.601 28.9331L25.4677 35.0664C25.2233 35.3109 24.9122 35.4331 24.5344 35.4331C24.1566 35.4331 23.8455 35.3109 23.601 35.0664C23.3566 34.822 23.2344 34.5109 23.2344 34.1331C23.2344 33.7553 23.3566 33.4442 23.601 33.1997L28.801 27.9997Z" fill="#404040"/>
</g>
</svg>
