<svg width="14" height="19" viewBox="0 0 14 19" fill="none" xmlns="http://www.w3.org/2000/svg">
<path d="M2.0026 18.8335C1.54427 18.8335 1.15191 18.6703 0.825521 18.3439C0.499132 18.0175 0.335938 17.6252 0.335938 17.1668V8.00016C0.335938 7.54183 0.499132 7.14947 0.825521 6.82308C1.15191 6.49669 1.54427 6.3335 2.0026 6.3335H3.66927C3.90538 6.3335 4.1033 6.41336 4.26302 6.57308C4.42274 6.7328 4.5026 6.93072 4.5026 7.16683C4.5026 7.40294 4.42274 7.60086 4.26302 7.76058C4.1033 7.9203 3.90538 8.00016 3.66927 8.00016H2.0026V17.1668H12.0026V8.00016H10.3359C10.0998 8.00016 9.90191 7.9203 9.74219 7.76058C9.58247 7.60086 9.5026 7.40294 9.5026 7.16683C9.5026 6.93072 9.58247 6.7328 9.74219 6.57308C9.90191 6.41336 10.0998 6.3335 10.3359 6.3335H12.0026C12.4609 6.3335 12.8533 6.49669 13.1797 6.82308C13.5061 7.14947 13.6693 7.54183 13.6693 8.00016V17.1668C13.6693 17.6252 13.5061 18.0175 13.1797 18.3439C12.8533 18.6703 12.4609 18.8335 12.0026 18.8335H2.0026ZM6.16927 3.68766L5.41927 4.43766C5.2526 4.60433 5.05816 4.68419 4.83594 4.67725C4.61372 4.6703 4.41927 4.5835 4.2526 4.41683C4.09983 4.25016 4.01996 4.05572 4.01302 3.8335C4.00608 3.61127 4.08594 3.41683 4.2526 3.25016L6.41927 1.0835C6.58594 0.916829 6.78038 0.833496 7.0026 0.833496C7.22483 0.833496 7.41927 0.916829 7.58594 1.0835L9.7526 3.25016C9.90538 3.40294 9.98177 3.59391 9.98177 3.82308C9.98177 4.05225 9.90538 4.25016 9.7526 4.41683C9.58594 4.5835 9.38802 4.66683 9.15885 4.66683C8.92969 4.66683 8.73177 4.5835 8.5651 4.41683L7.83594 3.68766V12.1668C7.83594 12.4029 7.75608 12.6009 7.59635 12.7606C7.43663 12.9203 7.23871 13.0002 7.0026 13.0002C6.76649 13.0002 6.56858 12.9203 6.40885 12.7606C6.24913 12.6009 6.16927 12.4029 6.16927 12.1668V3.68766Z" fill="#404040"/>
</svg>
