<svg width="223" height="32" viewBox="0 0 223 32" fill="none" xmlns="http://www.w3.org/2000/svg">
<path d="M14.7338 0.443853V0.888039C16.1541 0.888039 17.0877 1.11146 17.8883 1.77641V28.0898C17.8883 30.7549 17.5319 31.1113 14.7763 31.1113V31.5555H21.4444V31.1113C18.6888 31.1113 18.3324 30.7549 18.3324 28.0898V2.2206C18.7766 2.75522 19.1782 3.46538 19.5772 4.39897L30.8227 31.9997H31.2669L43.6667 1.64342V28.2653C43.6667 30.7549 43.3103 31.1113 40.7329 31.1113V31.5555H50.7789V31.1113C48.2016 31.1113 47.8452 30.7549 47.8452 28.2653V3.82179C47.8452 1.24445 48.2016 0.888039 50.7789 0.888039V0.443853H43.6214L33.0888 25.8662L22.4232 0.443853H14.7338Z" fill="white"/>
<path d="M71.8881 0.444186C78.5561 0.444186 82.2452 4.66528 82.2452 15.9987C82.2452 27.3347 78.5561 31.5558 71.8881 31.5558C65.2227 31.5558 61.4884 27.3347 61.4884 15.9987C61.4884 4.66528 65.2227 0.444186 71.8881 0.444186ZM71.8881 0C62.4672 0 57.2674 5.10947 57.2674 15.9987C57.2674 26.8879 62.4672 32 71.8881 32C81.3116 32 86.4662 26.8879 86.4662 15.9987C86.4662 5.10947 81.3116 0 71.8881 0Z" fill="white"/>
<path d="M92.8669 0.443853V0.888039C94.2872 0.888039 95.2208 1.11146 96.0214 1.77641V28.0898C96.0214 30.7549 95.665 31.1113 92.9095 31.1113V31.5555H99.5775V31.1113C96.822 31.1113 96.4656 30.7549 96.4656 28.0898V2.2206C96.9098 2.75522 97.3114 3.46538 97.7104 4.39897L108.956 31.9997H109.4L121.8 1.64342V28.2653C121.8 30.7549 121.443 31.1113 118.866 31.1113V31.5555H128.912V31.1113C126.335 31.1113 125.978 30.7549 125.978 28.2653V3.82179C125.978 1.24445 126.335 0.888039 128.912 0.888039V0.443853H121.755L111.222 25.8662L100.556 0.443853H92.8669Z" fill="white"/>
<path d="M141.31 0.888039H150.688C156.734 0.888039 158.689 2.17804 158.689 7.64392H159.133V0.443853H134.198V0.888039C136.778 0.888039 137.089 1.24445 137.089 3.82179V28.1775C137.089 30.7549 136.778 31.1113 134.198 31.1113V31.5555H159.133V24.3554H158.689C158.689 29.8213 156.734 31.1113 150.688 31.1113H141.31V16.267H150.199C153.22 16.267 154.643 17.0224 154.643 20.5785H155.087V11.4208H154.643C154.643 14.977 153.22 15.7324 150.199 15.7324H141.31V0.888039Z" fill="white"/>
<path d="M165.578 0.443853V0.888039C166.998 0.888039 167.932 1.11146 168.733 1.64342V28.0898C168.733 30.7549 168.376 31.1113 165.621 31.1113V31.5555H172.289V31.1113C169.533 31.1113 169.177 30.7549 169.177 28.0898V1.99983C169.666 2.3988 170.11 2.97598 170.6 3.6888L188.157 31.5555H191.49V4C191.49 1.24445 191.843 0.888039 194.601 0.888039V0.443853H187.933V0.888039C190.689 0.888039 191.045 1.24445 191.045 4V28.1775L173.534 0.443853H165.578Z" fill="white"/>
<path d="M199.267 0.443853V7.64392H199.711C199.711 2.17804 201.312 0.888039 206.778 0.888039H209.001V28.2653C209.001 30.7549 208.69 31.1113 206.11 31.1113V31.5555H216.156V31.1113C213.579 31.1113 213.222 30.7549 213.222 28.2653V0.888039H215.446C220.912 0.888039 222.556 2.17804 222.556 7.64392H223V0.443853H199.267Z" fill="white"/>
<path d="M0.418945 31.5329H2.62921V31.4052C1.01207 31.4052 0.546614 30.8254 0.546614 29.2109V28.8199H8.35567C9.02593 28.8199 9.127 28.9077 9.127 29.6019H9.25201V26.5112H9.127C9.127 27.2027 9.02593 27.3038 8.35567 27.3038H0.546614V26.9128C0.546614 25.2983 1.01207 24.7185 2.62921 24.7185V24.5935H0.418945V31.5329Z" fill="white"/>
<path d="M0.418945 20.6447H0.546614C0.546614 19.9505 0.647684 19.8494 1.34188 19.8494H8.35567C9.02593 19.8494 9.127 19.9505 9.127 20.6447H9.25201V17.5513H9.127C9.127 18.2455 9.02593 18.336 8.35567 18.336H4.89798V14.1069H8.35567C9.02593 14.1069 9.127 14.1973 9.127 14.8915H9.25201V11.8115H9.127C9.127 12.5057 9.02593 12.5935 8.35567 12.5935H1.34188C0.647684 12.5935 0.546614 12.5057 0.546614 11.8115H0.418945V14.8915H0.546614C0.546614 14.1973 0.647684 14.1069 1.34188 14.1069H4.75968V18.336H1.34188C0.647684 18.336 0.546614 18.2455 0.546614 17.5513H0.418945V20.6447Z" fill="white"/>
<path d="M0.546614 5.40404V3.13257C0.546614 1.28934 1.01207 0.58183 2.62921 0.58183V0.45682H0.418945V7.69944H0.546614C0.546614 7.00524 0.647684 6.91746 1.34188 6.91746H8.33174C9.02593 6.91746 9.127 7.00524 9.127 7.69944H9.25201V0.45682H7.04441V0.58183C8.65889 0.58183 9.127 1.28934 9.127 3.13257V5.40404H4.91128V3.10598C4.91128 2.26016 5.16396 1.75746 6.19861 1.75746V1.62979H3.47235V1.75746C4.507 1.75746 4.75968 2.24952 4.75968 3.10598V5.40404H0.546614Z" fill="white"/>
</svg>
