<svg width="322" height="48" viewBox="0 0 322 48" fill="none" xmlns="http://www.w3.org/2000/svg">
<path d="M20.9922 1.5412V2.1825C23.0428 2.1825 24.3906 2.50506 25.5465 3.46508V41.455C25.5465 45.3028 25.0319 45.8173 21.0536 45.8173V46.4586H30.6806V45.8173C26.7023 45.8173 26.1877 45.3028 26.1877 41.455V4.10638C26.829 4.87823 27.4089 5.90353 27.9849 7.2514L44.2205 47.0999H44.8618L62.764 3.27308V41.7084C62.764 45.3028 62.2494 45.8173 58.5284 45.8173V46.4586H73.0322V45.8173C69.3112 45.8173 68.7966 45.3028 68.7966 41.7084V6.41811C68.7966 2.69707 69.3112 2.1825 73.0322 2.1825V1.5412H62.6987L47.4922 38.2447L32.0937 1.5412H20.9922Z" fill="#2B2B2B"/>
<path d="M103.508 1.54168C113.135 1.54168 118.462 7.63589 118.462 23.9985C118.462 40.3649 113.135 46.4591 103.508 46.4591C93.8854 46.4591 88.494 40.3649 88.494 23.9985C88.494 7.63589 93.8854 1.54168 103.508 1.54168ZM103.508 0.900391C89.9071 0.900391 82.3999 8.27718 82.3999 23.9985C82.3999 39.7198 89.9071 47.1004 103.508 47.1004C117.114 47.1004 124.556 39.7198 124.556 23.9985C124.556 8.27718 117.114 0.900391 103.508 0.900391Z" fill="#2B2B2B"/>
<path d="M133.797 1.5412V2.1825C135.847 2.1825 137.195 2.50506 138.351 3.46508V41.455C138.351 45.3028 137.836 45.8173 133.858 45.8173V46.4586H143.485V45.8173C139.507 45.8173 138.992 45.3028 138.992 41.455V4.10638C139.633 4.87823 140.213 5.90353 140.789 7.2514L157.025 47.0999H157.666L175.568 3.27308V41.7084C175.568 45.3028 175.054 45.8173 171.333 45.8173V46.4586H185.837V45.8173C182.116 45.8173 181.601 45.3028 181.601 41.7084V6.41811C181.601 2.69707 182.116 2.1825 185.837 2.1825V1.5412H175.503L160.297 38.2447L144.898 1.5412H133.797Z" fill="#2B2B2B"/>
<path d="M203.736 2.1825H217.276C226.004 2.1825 228.827 4.04494 228.827 11.9363H229.468V1.5412H193.468V2.1825C197.193 2.1825 197.642 2.69707 197.642 6.41811V41.5817C197.642 45.3028 197.193 45.8173 193.468 45.8173V46.4586H229.468V36.0635H228.827C228.827 43.9549 226.004 45.8173 217.276 45.8173H203.736V24.3858H216.569C220.932 24.3858 222.986 25.4764 222.986 30.6106H223.627V17.3892H222.986C222.986 22.5234 220.932 23.614 216.569 23.614H203.736V2.1825Z" fill="#2B2B2B"/>
<path d="M238.773 1.5412V2.1825C240.824 2.1825 242.172 2.50506 243.328 3.27308V41.455C243.328 45.3028 242.813 45.8173 238.835 45.8173V46.4586H248.462V45.8173C244.483 45.8173 243.969 45.3028 243.969 41.455V3.78765C244.675 4.36366 245.317 5.19696 246.023 6.2261L271.371 46.4586H276.183V6.67539C276.183 2.69707 276.693 2.1825 280.676 2.1825V1.5412H271.049V2.1825C275.027 2.1825 275.541 2.69707 275.541 6.67539V41.5817L250.259 1.5412H238.773Z" fill="#2B2B2B"/>
<path d="M287.411 1.5412V11.9363H288.052C288.052 4.04494 290.364 2.1825 298.255 2.1825H301.465V41.7084C301.465 45.3028 301.016 45.8173 297.291 45.8173V46.4586H311.795V45.8173C308.074 45.8173 307.56 45.3028 307.56 41.7084V2.1825H310.77C318.661 2.1825 321.034 4.04494 321.034 11.9363H321.676V1.5412H287.411Z" fill="#2B2B2B"/>
<path d="M0.325195 46.426H3.51625V46.2417C1.18152 46.2417 0.509516 45.4045 0.509516 43.0736V42.5091H11.7838C12.7515 42.5091 12.8974 42.6358 12.8974 43.6381H13.0779V39.1759H12.8974C12.8974 40.1743 12.7515 40.3203 11.7838 40.3203H0.509516V39.7558C0.509516 37.4248 1.18152 36.5877 3.51625 36.5877V36.4072H0.325195V46.426Z" fill="#2B2B2B"/>
<path d="M0.325195 30.7061H0.509516C0.509516 29.7039 0.655436 29.5579 1.65768 29.5579H11.7838C12.7515 29.5579 12.8974 29.7039 12.8974 30.7061H13.0779V26.2401H12.8974C12.8974 27.2424 12.7515 27.3729 11.7838 27.3729H6.79179V21.2672H11.7838C12.7515 21.2672 12.8974 21.3978 12.8974 22.4H13.0779V17.9532H12.8974C12.8974 18.9555 12.7515 19.0822 11.7838 19.0822H1.65768C0.655436 19.0822 0.509516 18.9555 0.509516 17.9532H0.325195V22.4H0.509516C0.509516 21.3978 0.655436 21.2672 1.65768 21.2672H6.59211V27.3729H1.65768C0.655436 27.3729 0.509516 27.2424 0.509516 26.2401H0.325195V30.7061Z" fill="#2B2B2B"/>
<path d="M0.509516 8.70247V5.42305C0.509516 2.76187 1.18152 1.74041 3.51625 1.74041V1.55992H0.325195V12.0165H0.509516C0.509516 11.0142 0.655436 10.8875 1.65768 10.8875H11.7493C12.7515 10.8875 12.8974 11.0142 12.8974 12.0165H13.0779V1.55992H9.89069V1.74041C12.2216 1.74041 12.8974 2.76187 12.8974 5.42305V8.70247H6.81099V5.38464C6.81099 4.1635 7.17579 3.43772 8.66956 3.43772V3.2534H4.73354V3.43772C6.22731 3.43772 6.59211 4.14814 6.59211 5.38464V8.70247H0.509516Z" fill="#2B2B2B"/>
</svg>
